<svg width="1041" height="1000" viewBox="0 0 1041 1000" fill="none" xmlns="http://www.w3.org/2000/svg">
<rect x="20" width="1000" height="1000" rx="200" fill="white"/>
<path d="M220.3 173.088C235.842 166.423 250.427 162.814 264.054 162.263C277.802 161.408 286.275 164.706 289.471 172.158C292.666 179.61 293.764 190.103 292.764 203.64C291.885 216.872 289.53 224.31 285.698 225.953C284.633 226.41 283.127 226.425 281.18 226C279.355 225.27 275.614 225.362 269.956 226.276C264.421 226.886 259.843 227.967 256.223 229.52C243.875 234.815 235.74 243.471 231.819 255.488C228.112 267.412 230.138 282.423 237.9 300.52C245.569 318.404 255.109 330.067 266.517 335.508C278.138 340.859 289.909 340.978 301.832 335.865C306.729 333.765 311.884 330.797 317.297 326.963C322.832 322.825 326.329 318.93 327.789 315.28C328.032 314.672 328.792 314.093 330.07 313.546C331.347 312.997 334.739 314.442 340.245 317.878C345.874 321.009 351.867 325.875 358.226 332.473C364.494 338.859 368.541 344.182 370.367 348.44C373.928 356.743 370.372 366.082 359.698 376.457C349.023 386.833 334.957 395.764 317.5 403.252C289.396 415.304 262.051 415.312 235.462 403.273C208.874 391.234 187.864 367.225 172.433 331.244C156.91 295.051 153.981 262.656 163.647 234.061C173.525 205.374 192.41 185.05 220.3 173.088Z" fill="black"/>
<path d="M719.098 841.812C722.913 844.161 729.335 847.239 738.363 851.041C747.571 854.822 756.036 856.267 763.771 855.364C771.686 854.446 775.293 850.951 774.584 844.877C774.265 842.111 772.882 839.845 770.435 838.08C767.968 836.127 763.632 834.111 757.419 832.034C751.206 829.963 746.542 828.357 743.429 827.224C740.288 825.911 736.034 823.798 730.655 820.872C725.443 817.752 721.322 814.402 718.292 810.837C709.709 801.198 704.476 788.285 702.592 772.085C700.709 755.886 705.108 741.569 715.79 729.129C726.638 716.488 741.817 709.031 761.324 706.765C774.584 705.222 786.997 705.271 798.568 706.911C810.118 708.37 816.345 711.38 817.249 715.939C817.311 716.488 817.374 717.044 817.436 717.593C818.187 724.035 817.117 732.465 814.219 742.876C811.307 753.099 809.083 758.867 807.554 760.16C795.065 755.455 784.126 753.648 774.744 754.739C765.536 755.809 761.317 759.659 762.089 766.289C762.561 770.334 766.384 773.531 773.556 775.866C775.12 776.436 777.35 777.2 780.262 778.166C783.174 779.132 786.482 780.335 790.2 781.766C794.071 782.996 798.193 784.755 802.564 787.048C807.095 789.133 812.016 792.107 817.318 795.965C828.139 804.04 834.435 815.618 836.187 830.713C838.48 850.415 834.922 867.15 825.512 880.932C816.109 894.713 800.104 903.101 777.503 906.104C766.46 907.389 756.321 907.632 747.084 906.84C738.036 906.027 729.884 903.337 722.642 898.772C715.394 894.199 711.328 888.145 710.453 880.598C709.577 873.051 710.091 865.434 711.995 857.747C713.879 849.88 716.242 844.564 719.098 841.812Z" fill="black"/>
<path d="M653.517 99.6062C685.088 106.172 701.086 114.798 701.517 125.488L704.874 199.442L791.426 217.439L821.247 153.225C825.764 142.428 844.347 140.425 877.011 147.217C894.427 150.838 907.124 154.424 915.096 157.975C922.983 161.887 926.82 164.388 926.59 165.477L753.619 513.955C753.014 516.858 727.857 513.141 678.138 502.802C628.422 492.465 603.866 485.844 604.469 482.941L587.043 94.3015C587.571 91.7614 596.333 91.5015 613.327 93.5211C630.322 95.5406 643.719 97.5693 653.517 99.6062ZM763.439 283.739L706.285 271.855L707.348 389.625L710.614 390.304L763.439 283.739Z" fill="black"/>
<path d="M354.55 841.199C433.233 841.199 497.018 777.414 497.018 698.73C497.018 620.047 433.233 556.261 354.55 556.261C275.866 556.261 212.081 620.047 212.081 698.73C212.081 777.414 275.866 841.199 354.55 841.199Z" fill="black"/>
<path d="M354.55 757.804C387.175 757.804 413.623 731.356 413.623 698.731C413.623 666.106 387.175 639.659 354.55 639.659C321.925 639.659 295.478 666.106 295.478 698.731C295.478 731.356 321.925 757.804 354.55 757.804Z" fill="#DCD2FF"/>
</svg>
